<svg width="375" height="812" viewBox="0 0 375 812" fill="none" xmlns="http://www.w3.org/2000/svg">
<g clip-path="url(#clip0_48_5715)">
<rect width="375" height="812" rx="32" fill="#F2F5F9"/>
<rect x="155.5" y="110" width="64" height="64" rx="12" fill="#0F67FE"/>
<path d="M171.5 142H181.5C184.813 142 187.5 144.686 187.5 148V158" stroke="white" stroke-width="3.99988"/>
<path d="M203.5 142L193.5 142C190.187 142 187.5 139.314 187.5 136L187.5 126" stroke="white" stroke-width="3.99988"/>
<path d="M106.264 218L100.414 195.65H105.454L109.864 214.37H108.514L113.164 195.65H117.964L122.614 214.37H121.264L125.674 195.65H130.714L124.864 218H119.464L114.784 200H116.344L111.664 218H106.264ZM139.383 218.36C137.643 218.36 136.133 217.98 134.853 217.22C133.573 216.44 132.583 215.4 131.883 214.1C131.183 212.8 130.833 211.36 130.833 209.78C130.833 208.14 131.193 206.68 131.913 205.4C132.653 204.12 133.643 203.11 134.883 202.37C136.123 201.63 137.523 201.26 139.083 201.26C140.383 201.26 141.533 201.47 142.533 201.89C143.533 202.29 144.373 202.86 145.053 203.6C145.753 204.34 146.283 205.2 146.643 206.18C147.003 207.14 147.183 208.19 147.183 209.33C147.183 209.65 147.163 209.97 147.123 210.29C147.103 210.59 147.053 210.85 146.973 211.07H134.703V207.77H144.423L142.293 209.33C142.493 208.47 142.483 207.71 142.263 207.05C142.043 206.37 141.653 205.84 141.093 205.46C140.553 205.06 139.883 204.86 139.083 204.86C138.303 204.86 137.633 205.05 137.073 205.43C136.513 205.81 136.093 206.37 135.813 207.11C135.533 207.85 135.423 208.75 135.483 209.81C135.403 210.73 135.513 211.54 135.813 212.24C136.113 212.94 136.573 213.49 137.193 213.89C137.813 214.27 138.563 214.46 139.443 214.46C140.243 214.46 140.923 214.3 141.483 213.98C142.063 213.66 142.513 213.22 142.833 212.66L146.433 214.37C146.113 215.17 145.603 215.87 144.903 216.47C144.223 217.07 143.413 217.54 142.473 217.88C141.533 218.2 140.503 218.36 139.383 218.36ZM149.532 218V195.29H154.032V218H149.532ZM165.065 218.36C163.425 218.36 161.945 217.99 160.625 217.25C159.325 216.49 158.285 215.46 157.505 214.16C156.745 212.86 156.365 211.4 156.365 209.78C156.365 208.16 156.745 206.71 157.505 205.43C158.265 204.13 159.305 203.11 160.625 202.37C161.945 201.63 163.425 201.26 165.065 201.26C166.285 201.26 167.415 201.47 168.455 201.89C169.495 202.31 170.385 202.9 171.125 203.66C171.865 204.4 172.395 205.28 172.715 206.3L168.815 207.98C168.535 207.16 168.055 206.51 167.375 206.03C166.715 205.55 165.945 205.31 165.065 205.31C164.285 205.31 163.585 205.5 162.965 205.88C162.365 206.26 161.885 206.79 161.525 207.47C161.185 208.15 161.015 208.93 161.015 209.81C161.015 210.69 161.185 211.47 161.525 212.15C161.885 212.83 162.365 213.36 162.965 213.74C163.585 214.12 164.285 214.31 165.065 214.31C165.965 214.31 166.745 214.07 167.405 213.59C168.065 213.11 168.535 212.46 168.815 211.64L172.715 213.35C172.415 214.31 171.895 215.17 171.155 215.93C170.415 216.69 169.525 217.29 168.485 217.73C167.445 218.15 166.305 218.36 165.065 218.36ZM183.195 218.36C181.575 218.36 180.095 217.99 178.755 217.25C177.435 216.51 176.375 215.5 175.575 214.22C174.795 212.92 174.405 211.45 174.405 209.81C174.405 208.15 174.795 206.68 175.575 205.4C176.375 204.12 177.435 203.11 178.755 202.37C180.095 201.63 181.575 201.26 183.195 201.26C184.815 201.26 186.285 201.63 187.605 202.37C188.925 203.11 189.975 204.12 190.755 205.4C191.555 206.68 191.955 208.15 191.955 209.81C191.955 211.45 191.555 212.92 190.755 214.22C189.975 215.5 188.925 216.51 187.605 217.25C186.285 217.99 184.815 218.36 183.195 218.36ZM183.195 214.31C184.015 214.31 184.725 214.12 185.325 213.74C185.945 213.36 186.425 212.83 186.765 212.15C187.125 211.47 187.305 210.69 187.305 209.81C187.305 208.93 187.125 208.16 186.765 207.5C186.425 206.82 185.945 206.29 185.325 205.91C184.725 205.51 184.015 205.31 183.195 205.31C182.375 205.31 181.655 205.51 181.035 205.91C180.415 206.29 179.925 206.82 179.565 207.5C179.225 208.16 179.055 208.93 179.055 209.81C179.055 210.69 179.225 211.47 179.565 212.15C179.925 212.83 180.415 213.36 181.035 213.74C181.655 214.12 182.375 214.31 183.195 214.31ZM194.306 218V201.62H198.506V205.61L198.056 204.95C198.296 203.69 198.876 202.76 199.796 202.16C200.716 201.56 201.816 201.26 203.096 201.26C204.456 201.26 205.646 201.61 206.666 202.31C207.706 202.99 208.356 203.91 208.616 205.07L207.326 205.19C207.866 203.85 208.636 202.86 209.636 202.22C210.636 201.58 211.806 201.26 213.146 201.26C214.326 201.26 215.366 201.52 216.266 202.04C217.186 202.56 217.906 203.29 218.426 204.23C218.946 205.15 219.206 206.23 219.206 207.47V218H214.706V208.43C214.706 207.79 214.586 207.24 214.346 206.78C214.126 206.32 213.806 205.96 213.386 205.7C212.966 205.44 212.456 205.31 211.856 205.31C211.276 205.31 210.766 205.44 210.326 205.7C209.906 205.96 209.576 206.32 209.336 206.78C209.116 207.24 209.006 207.79 209.006 208.43V218H204.506V208.43C204.506 207.79 204.386 207.24 204.146 206.78C203.926 206.32 203.606 205.96 203.186 205.7C202.766 205.44 202.256 205.31 201.656 205.31C201.076 205.31 200.566 205.44 200.126 205.7C199.706 205.96 199.376 206.32 199.136 206.78C198.916 207.24 198.806 207.79 198.806 208.43V218H194.306ZM229.758 218.36C228.018 218.36 226.508 217.98 225.228 217.22C223.948 216.44 222.958 215.4 222.258 214.1C221.558 212.8 221.208 211.36 221.208 209.78C221.208 208.14 221.568 206.68 222.288 205.4C223.028 204.12 224.018 203.11 225.258 202.37C226.498 201.63 227.898 201.26 229.458 201.26C230.758 201.26 231.908 201.47 232.908 201.89C233.908 202.29 234.748 202.86 235.428 203.6C236.128 204.34 236.658 205.2 237.018 206.18C237.378 207.14 237.558 208.19 237.558 209.33C237.558 209.65 237.538 209.97 237.498 210.29C237.478 210.59 237.428 210.85 237.348 211.07H225.078V207.77H234.798L232.668 209.33C232.868 208.47 232.858 207.71 232.638 207.05C232.418 206.37 232.028 205.84 231.468 205.46C230.928 205.06 230.258 204.86 229.458 204.86C228.678 204.86 228.008 205.05 227.448 205.43C226.888 205.81 226.468 206.37 226.188 207.11C225.908 207.85 225.798 208.75 225.858 209.81C225.778 210.73 225.888 211.54 226.188 212.24C226.488 212.94 226.948 213.49 227.568 213.89C228.188 214.27 228.938 214.46 229.818 214.46C230.618 214.46 231.298 214.3 231.858 213.98C232.438 213.66 232.888 213.22 233.208 212.66L236.808 214.37C236.488 215.17 235.978 215.87 235.278 216.47C234.598 217.07 233.788 217.54 232.848 217.88C231.908 218.2 230.878 218.36 229.758 218.36ZM252.888 218.18C250.908 218.18 249.368 217.65 248.268 216.59C247.188 215.51 246.648 214.01 246.648 212.09V205.52H243.888V201.62H244.038C244.878 201.62 245.518 201.41 245.958 200.99C246.418 200.57 246.648 199.94 246.648 199.1V197.9H251.148V201.62H254.988V205.52H251.148V211.79C251.148 212.35 251.248 212.82 251.448 213.2C251.648 213.56 251.958 213.83 252.378 214.01C252.798 214.19 253.318 214.28 253.938 214.28C254.078 214.28 254.238 214.27 254.418 214.25C254.598 214.23 254.788 214.21 254.988 214.19V218C254.688 218.04 254.348 218.08 253.968 218.12C253.588 218.16 253.228 218.18 252.888 218.18ZM265.455 218.36C263.835 218.36 262.355 217.99 261.015 217.25C259.695 216.51 258.635 215.5 257.835 214.22C257.055 212.92 256.665 211.45 256.665 209.81C256.665 208.15 257.055 206.68 257.835 205.4C258.635 204.12 259.695 203.11 261.015 202.37C262.355 201.63 263.835 201.26 265.455 201.26C267.075 201.26 268.545 201.63 269.865 202.37C271.185 203.11 272.235 204.12 273.015 205.4C273.815 206.68 274.215 208.15 274.215 209.81C274.215 211.45 273.815 212.92 273.015 214.22C272.235 215.5 271.185 216.51 269.865 217.25C268.545 217.99 267.075 218.36 265.455 218.36ZM265.455 214.31C266.275 214.31 266.985 214.12 267.585 213.74C268.205 213.36 268.685 212.83 269.025 212.15C269.385 211.47 269.565 210.69 269.565 209.81C269.565 208.93 269.385 208.16 269.025 207.5C268.685 206.82 268.205 206.29 267.585 205.91C266.985 205.51 266.275 205.31 265.455 205.31C264.635 205.31 263.915 205.51 263.295 205.91C262.675 206.29 262.185 206.82 261.825 207.5C261.485 208.16 261.315 208.93 261.315 209.81C261.315 210.69 261.485 211.47 261.825 212.15C262.185 212.83 262.675 213.36 263.295 213.74C263.915 214.12 264.635 214.31 265.455 214.31Z" fill="#242E49"/>
<path d="M113.03 249V228.885H116.243L127.043 243.114L125.315 243.519V228.885H129.5V249H126.26L115.649 234.663L117.215 234.258V249H113.03ZM139.603 249.324C138.037 249.324 136.678 248.982 135.526 248.298C134.374 247.596 133.483 246.66 132.853 245.49C132.223 244.32 131.908 243.024 131.908 241.602C131.908 240.126 132.232 238.812 132.88 237.66C133.546 236.508 134.437 235.599 135.553 234.933C136.669 234.267 137.929 233.934 139.333 233.934C140.503 233.934 141.538 234.123 142.438 234.501C143.338 234.861 144.094 235.374 144.706 236.04C145.336 236.706 145.813 237.48 146.137 238.362C146.461 239.226 146.623 240.171 146.623 241.197C146.623 241.485 146.605 241.773 146.569 242.061C146.551 242.331 146.506 242.565 146.434 242.763H135.391V239.793H144.139L142.222 241.197C142.402 240.423 142.393 239.739 142.195 239.145C141.997 238.533 141.646 238.056 141.142 237.714C140.656 237.354 140.053 237.174 139.333 237.174C138.631 237.174 138.028 237.345 137.524 237.687C137.02 238.029 136.642 238.533 136.39 239.199C136.138 239.865 136.039 240.675 136.093 241.629C136.021 242.457 136.12 243.186 136.39 243.816C136.66 244.446 137.074 244.941 137.632 245.301C138.19 245.643 138.865 245.814 139.657 245.814C140.377 245.814 140.989 245.67 141.493 245.382C142.015 245.094 142.42 244.698 142.708 244.194L145.948 245.733C145.66 246.453 145.201 247.083 144.571 247.623C143.959 248.163 143.23 248.586 142.384 248.892C141.538 249.18 140.611 249.324 139.603 249.324ZM154.03 249.324C152.842 249.324 151.825 249.072 150.979 248.568C150.151 248.046 149.521 247.326 149.089 246.408C148.657 245.49 148.441 244.419 148.441 243.195V234.258H152.491V242.871C152.491 243.429 152.599 243.924 152.815 244.356C153.049 244.77 153.373 245.094 153.787 245.328C154.201 245.562 154.669 245.679 155.191 245.679C155.731 245.679 156.199 245.562 156.595 245.328C157.009 245.094 157.324 244.77 157.54 244.356C157.774 243.924 157.891 243.429 157.891 242.871V234.258H161.941V249H158.161V246.084L158.377 246.732C158.035 247.614 157.477 248.271 156.703 248.703C155.947 249.117 155.056 249.324 154.03 249.324ZM164.631 249V234.258H168.411V237.795L168.141 237.282C168.465 236.04 168.996 235.203 169.734 234.771C170.49 234.321 171.381 234.096 172.407 234.096H173.271V237.606H172.002C171.012 237.606 170.211 237.912 169.599 238.524C168.987 239.118 168.681 239.964 168.681 241.062V249H164.631ZM182.093 249.324C180.635 249.324 179.303 248.991 178.097 248.325C176.909 247.659 175.955 246.75 175.235 245.598C174.533 244.428 174.182 243.105 174.182 241.629C174.182 240.135 174.533 238.812 175.235 237.66C175.955 236.508 176.909 235.599 178.097 234.933C179.303 234.267 180.635 233.934 182.093 233.934C183.551 233.934 184.874 234.267 186.062 234.933C187.25 235.599 188.195 236.508 188.897 237.66C189.617 238.812 189.977 240.135 189.977 241.629C189.977 243.105 189.617 244.428 188.897 245.598C188.195 246.75 187.25 247.659 186.062 248.325C184.874 248.991 183.551 249.324 182.093 249.324ZM182.093 245.679C182.831 245.679 183.47 245.508 184.01 245.166C184.568 244.824 185 244.347 185.306 243.735C185.63 243.123 185.792 242.421 185.792 241.629C185.792 240.837 185.63 240.144 185.306 239.55C185 238.938 184.568 238.461 184.01 238.119C183.47 237.759 182.831 237.579 182.093 237.579C181.355 237.579 180.707 237.759 180.149 238.119C179.591 238.461 179.15 238.938 178.826 239.55C178.52 240.144 178.367 240.837 178.367 241.629C178.367 242.421 178.52 243.123 178.826 243.735C179.15 244.347 179.591 244.824 180.149 245.166C180.707 245.508 181.355 245.679 182.093 245.679ZM196.17 249L190.905 228.885H195.441L199.41 245.733H198.195L202.38 228.885H206.7L210.885 245.733H209.67L213.639 228.885H218.175L212.91 249H208.05L203.838 232.8H205.242L201.03 249H196.17ZM223.175 249.324C222.113 249.324 221.195 249.153 220.421 248.811C219.647 248.469 219.053 247.983 218.639 247.353C218.225 246.705 218.018 245.94 218.018 245.058C218.018 244.23 218.207 243.501 218.585 242.871C218.963 242.223 219.539 241.683 220.313 241.251C221.105 240.819 222.086 240.513 223.256 240.333L227.765 239.604V242.574L223.985 243.249C223.409 243.357 222.968 243.546 222.662 243.816C222.356 244.068 222.203 244.437 222.203 244.923C222.203 245.373 222.374 245.724 222.716 245.976C223.058 246.228 223.481 246.354 223.985 246.354C224.651 246.354 225.236 246.21 225.74 245.922C226.244 245.634 226.631 245.247 226.901 244.761C227.189 244.257 227.333 243.708 227.333 243.114V239.28C227.333 238.722 227.108 238.254 226.658 237.876C226.226 237.498 225.632 237.309 224.876 237.309C224.156 237.309 223.517 237.507 222.959 237.903C222.419 238.299 222.023 238.821 221.771 239.469L218.531 237.93C218.819 237.102 219.278 236.391 219.908 235.797C220.538 235.203 221.294 234.744 222.176 234.42C223.058 234.096 224.021 233.934 225.065 233.934C226.307 233.934 227.405 234.159 228.359 234.609C229.313 235.059 230.051 235.689 230.573 236.499C231.113 237.291 231.383 238.218 231.383 239.28V249H227.603V246.624L228.521 246.462C228.089 247.11 227.612 247.65 227.09 248.082C226.568 248.496 225.983 248.802 225.335 249C224.687 249.216 223.967 249.324 223.175 249.324ZM238.437 249L232.632 234.258H237.006L241.029 245.409H239.355L243.378 234.258H247.752L241.947 249H238.437ZM256.102 249.324C254.536 249.324 253.177 248.982 252.025 248.298C250.873 247.596 249.982 246.66 249.352 245.49C248.722 244.32 248.407 243.024 248.407 241.602C248.407 240.126 248.731 238.812 249.379 237.66C250.045 236.508 250.936 235.599 252.052 234.933C253.168 234.267 254.428 233.934 255.832 233.934C257.002 233.934 258.037 234.123 258.937 234.501C259.837 234.861 260.593 235.374 261.205 236.04C261.835 236.706 262.312 237.48 262.636 238.362C262.96 239.226 263.122 240.171 263.122 241.197C263.122 241.485 263.104 241.773 263.068 242.061C263.05 242.331 263.005 242.565 262.933 242.763H251.89V239.793H260.638L258.721 241.197C258.901 240.423 258.892 239.739 258.694 239.145C258.496 238.533 258.145 238.056 257.641 237.714C257.155 237.354 256.552 237.174 255.832 237.174C255.13 237.174 254.527 237.345 254.023 237.687C253.519 238.029 253.141 238.533 252.889 239.199C252.637 239.865 252.538 240.675 252.592 241.629C252.52 242.457 252.619 243.186 252.889 243.816C253.159 244.446 253.573 244.941 254.131 245.301C254.689 245.643 255.364 245.814 256.156 245.814C256.876 245.814 257.488 245.67 257.992 245.382C258.514 245.094 258.919 244.698 259.207 244.194L262.447 245.733C262.159 246.453 261.7 247.083 261.07 247.623C260.458 248.163 259.729 248.586 258.883 248.892C258.037 249.18 257.11 249.324 256.102 249.324Z" fill="#0F67FE"/>
<path d="M117.586 695.034C98.1087 694.07 34.9745 727.406 -0.14267 690.602C-27.7759 661.505 -8.20236 635.395 -8.96994 630.771C-10.4092 622.196 57.9062 586.066 62.8956 578.936C74.6973 562.268 83.0448 543.192 87.1706 523.152C90.6247 506.676 90.7207 487.985 80.1663 474.978C71.435 464.188 57.4265 459.659 44.3775 455.035C28.1622 449.35 11.8509 442.606 -0.430515 430.755C-16.7418 415.051 -23.2663 390.001 -8.874 370.828C6.18994 350.788 32.9596 343.369 46.8722 322.269C59.7293 302.807 68.2687 283.442 94.4627 281.129C102.618 280.455 111.254 282.382 117.394 287.777C127.565 296.641 129.292 311.286 136.776 322.077C144.74 333.542 157.405 341.924 171.126 344.525C188.684 347.801 206.531 342.213 223.705 337.685C246.157 331.711 269.377 327.376 292.501 329.399C315.912 331.519 340.955 341.153 356.019 360.133C362.159 367.841 366.189 377.572 365.709 387.496C364.75 409.463 345.464 425.745 344.217 447.905C343.641 458.792 348.055 469.968 355.923 477.483C366.381 487.407 381.829 490.876 391.999 501.088C403.417 512.554 405.624 532.112 397.085 545.889C390.08 557.258 377.511 563.714 365.709 569.783C344.121 580.767 320.134 595.219 316.104 619.113C313.513 634.528 319.942 651.1 313.897 665.552C309.484 676.246 299.025 683.183 288.567 688.097C275.902 693.974 261.989 697.731 248.076 696.286C226.968 694.07 207.97 680.004 186.765 680.582C165.657 681.16 144.068 696.094 125.07 687.037C111.829 680.774 106.072 665.359 101.467 651.389L117.586 695.034Z" fill="white"/>
<path d="M10.2213 295.677C5.51982 304.541 -3.4034 310.226 -11.3671 316.296C-19.3309 322.462 -27.1987 330.458 -27.9662 340.479C-28.2541 344.718 -26.1432 350.113 -21.8255 350.21C-19.6187 350.306 -17.6038 348.957 -15.8767 347.512C-7.52919 340.671 -0.62089 331.711 9.06992 326.99C12.3322 325.448 15.7863 324.292 18.7607 322.365C24.9014 318.222 28.0677 310.707 29.411 303.385C30.2746 298.664 30.2746 292.98 26.4366 290.089C23.5582 287.873 19.2405 288.259 16.0742 290.089C12.9079 291.92 10.6051 294.907 8.49423 297.99L10.2213 295.677Z" fill="white"/>
<path d="M278.974 306.276C298.74 313.213 321.863 302.904 342.396 307.914C355.541 311.094 365.712 320.15 372.524 330.267C374.731 333.542 376.746 337.011 379.72 339.805C382.791 342.503 387.3 344.429 391.618 343.659C392.961 343.37 394.209 342.888 395.072 341.924C396.607 340.19 395.936 337.589 394.401 335.855C392.865 334.12 390.659 332.868 388.836 331.326C379.912 323.908 380.68 311.094 372.908 302.808C366.192 295.582 354.39 293.462 343.644 294.04C332.898 294.618 322.535 297.605 311.885 298.569C303.633 299.339 295.286 299.05 286.938 298.761C283.772 298.665 280.126 298.761 278.207 300.881C276.288 303 278.783 307.143 281.565 305.891L278.974 306.276Z" fill="white"/>
<g clip-path="url(#clip1_48_5715)">
<path d="M176.345 477.423C182.593 465.14 187.334 452.133 190.233 438.676C191.134 434.542 188.98 430.213 184.748 429.057C180.83 427.98 176.031 430.389 175.13 434.542C172.466 446.864 168.411 458.519 162.789 469.607C160.869 473.368 161.849 478.108 165.649 480.302C169.175 482.32 174.425 481.203 176.345 477.423Z" fill="#5D6A85"/>
<path d="M220.634 476.091C219.732 463.123 218.812 450.174 217.911 437.206C217.617 433.132 214.581 429.155 210.134 429.312C206.157 429.469 201.946 432.72 202.239 437.089C203.141 450.057 204.061 463.005 204.962 475.973C205.256 480.048 208.292 484.024 212.739 483.867C216.716 483.73 220.927 480.459 220.634 476.091Z" fill="#5D6A85"/>
<path d="M173.581 377.655C173.639 377.616 173.737 377.518 173.854 377.44C173.913 377.381 173.991 377.323 174.049 377.264C173.776 377.479 173.639 377.596 173.581 377.655Z" fill="#5D6A85"/>
<path d="M169.642 381.769C169.662 381.73 169.701 381.711 169.72 381.672C169.759 381.613 169.798 381.555 169.837 381.496C169.779 381.594 169.701 381.691 169.642 381.769Z" fill="#5D6A85"/>
<path d="M161.709 405.275C161.729 405.139 161.749 405.002 161.749 404.865C161.729 405.139 161.709 405.256 161.709 405.275Z" fill="#5D6A85"/>
<path d="M165.921 388.43C165.98 388.312 166.019 388.176 166.077 388.059C165.96 388.312 165.921 388.41 165.921 388.43Z" fill="#5D6A85"/>
<path d="M180.516 373.681C180.594 373.642 180.673 373.622 180.731 373.583C180.496 373.7 179.262 374.151 180.516 373.681Z" fill="#5D6A85"/>
<path d="M239.888 408.352C236.675 393.543 230.348 377.402 219.025 366.922C215.617 370.918 212.404 375.051 209.133 379.165C210.308 380.32 211.385 381.535 212.443 382.789C212.502 382.867 212.541 382.906 212.58 382.965C212.032 382.24 213.07 383.553 212.58 382.965C212.6 383.004 212.639 383.043 212.678 383.102C213.09 383.651 213.482 384.219 213.873 384.787C214.696 385.982 215.46 387.196 216.185 388.43C217.517 390.703 219.006 393.661 219.848 395.717C221.866 400.634 223.531 406.844 224.745 412.446C225.627 416.462 230.426 419.224 234.344 417.99C238.575 416.599 240.828 412.642 239.888 408.352Z" fill="#5D6A85"/>
<path d="M202.259 357.264C183.748 351.877 162.376 361.241 153.522 378.224C148.35 388.137 146.529 399.263 145.49 410.272C145.099 414.366 149.291 418.304 153.267 418.167C157.812 417.99 160.75 414.758 161.162 410.39C161.318 408.685 161.514 406.981 161.71 405.297C161.71 405.277 161.73 405.159 161.749 404.885C161.73 405.022 161.71 405.159 161.71 405.297C161.71 405.375 161.984 403.396 162.043 403.024C162.219 401.966 162.415 400.889 162.631 399.831C163.414 395.972 164.433 392.113 165.922 388.45C165.922 388.43 165.961 388.313 166.078 388.078C166.02 388.195 165.98 388.332 165.922 388.45C165.902 388.528 166.588 387.02 166.764 386.687C167.175 385.845 167.626 385.022 168.116 384.219C168.586 383.416 169.115 382.652 169.624 381.868C169.663 381.809 169.702 381.751 169.742 381.692C169.722 381.731 169.683 381.751 169.663 381.79C169.722 381.731 169.781 381.633 169.859 381.535C170.035 381.28 170.192 381.045 169.859 381.535C169.82 381.574 169.8 381.633 169.742 381.711C170.153 381.202 170.564 380.693 171.015 380.223C171.642 379.537 172.308 378.871 172.993 378.244C173.287 377.989 173.561 377.735 173.855 377.48C173.738 377.578 173.64 377.656 173.581 377.696C173.522 377.735 173.542 377.735 173.581 377.696C173.64 377.637 173.777 377.519 174.051 377.304C173.992 377.363 173.914 377.421 173.855 377.48C173.973 377.402 174.071 377.304 174.149 377.265C175.873 376.109 177.675 375.071 179.556 374.189C179.869 374.032 180.202 373.895 180.535 373.739C179.281 374.189 180.496 373.758 180.751 373.641C180.672 373.68 180.594 373.699 180.535 373.739C180.574 373.719 180.594 373.719 180.613 373.699C181.417 373.406 182.22 373.112 183.043 372.857C184.629 372.367 186.255 371.995 187.881 371.701C187.94 371.682 188.136 371.643 188.547 371.584C188.332 371.623 188.116 371.662 187.881 371.701C187.646 371.76 189.037 371.545 189.526 371.525C190.349 371.486 191.152 371.466 191.975 371.466C192.798 371.486 193.601 371.564 194.424 371.603C194.483 371.603 194.541 371.603 194.58 371.603C194.463 371.584 194.345 371.564 194.228 371.545C194.502 371.584 195.717 371.662 194.58 371.603C195.07 371.682 195.56 371.78 196.05 371.878C197.499 372.191 198.91 372.622 200.281 373.131C200.34 373.151 200.496 373.21 200.81 373.327C200.633 373.268 200.457 373.21 200.281 373.131C200.007 373.053 201.535 373.699 201.868 373.876C202.749 374.326 203.591 374.816 204.434 375.345C204.747 375.541 206.373 376.716 206.216 376.559C206.118 376.481 206.001 376.383 205.903 376.305C206.099 376.461 206.197 376.54 206.216 376.559C206.843 377.069 207.47 377.598 208.058 378.146C208.43 378.479 208.802 378.832 209.155 379.184C212.406 375.09 215.619 370.937 219.047 366.941C214.346 362.553 208.802 359.184 202.259 357.264Z" fill="#5D6A85"/>
<path d="M206.214 376.518C206.175 376.479 206.097 376.401 205.901 376.264C205.999 376.342 206.097 376.44 206.214 376.518Z" fill="#5D6A85"/>
<path d="M187.88 371.662C188.096 371.623 188.311 371.584 188.546 371.545C188.135 371.604 187.939 371.643 187.88 371.662Z" fill="#5D6A85"/>
<path d="M212.604 382.926C212.057 382.203 213.092 383.512 212.604 382.926V382.926Z" fill="#5D6A85"/>
<path d="M194.229 371.504C194.346 371.524 194.464 371.543 194.581 371.563C195.718 371.622 194.483 371.563 194.229 371.504Z" fill="#5D6A85"/>
<path d="M200.262 373.091C200.438 373.15 200.615 373.209 200.791 373.287C200.497 373.17 200.34 373.111 200.262 373.091Z" fill="#5D6A85"/>
<path d="M199.186 361.496C198.442 352.798 197.697 344.101 196.953 335.423C196.6 331.211 193.172 327.744 188.804 327.92C184.71 328.077 180.929 331.838 181.301 336.069C182.046 344.767 182.79 353.464 183.534 362.142C183.887 366.354 187.315 369.821 191.683 369.645C195.777 369.488 199.558 365.727 199.186 361.496Z" fill="#5D6A85"/>
<path d="M100.536 551.565C117.637 546.08 133.249 537.246 146.707 525.355C149.88 522.554 149.508 517.108 146.648 514.268C143.475 511.134 138.754 511.525 135.561 514.327C124.513 524.082 110.467 531.918 96.4612 536.423C92.563 537.677 89.605 541.849 90.9175 546.022C92.1712 549.92 96.3436 552.897 100.536 551.565Z" fill="#5D6A85"/>
<path d="M209.291 519.087C210.564 537.403 211.073 555.778 210.838 574.152C210.78 578.246 214.404 582.203 218.615 582.046C222.886 581.89 226.451 578.658 226.51 574.27C226.745 555.895 226.235 537.54 224.962 519.205C224.688 515.13 221.632 511.154 217.185 511.31C213.209 511.448 208.977 514.719 209.291 519.087Z" fill="#5D6A85"/>
<path d="M192.916 343.473C202.671 340.378 209.43 328.957 205.825 318.967C202.26 309.035 191.76 302.728 181.319 306.058C171.564 309.153 164.806 320.573 168.41 330.564C171.975 340.495 182.455 346.783 192.916 343.473Z" fill="#BEC5D2"/>
<path d="M180.479 460.3C177.796 457.656 173.408 455.618 169.568 455.775C160.459 456.128 154.641 462.572 153.779 471.329C153.74 471.642 153.701 471.936 153.682 472.249C153.29 474.541 152.78 476.794 152.114 479.027C151.683 480.516 151.194 481.966 150.645 483.415C150.567 483.631 150.508 483.807 150.449 483.944C150.273 484.258 150.116 484.532 150.038 484.688C148.745 487.333 147.217 489.782 145.591 492.23C145.376 492.485 145.18 492.74 144.964 492.994C143.946 494.189 142.849 495.306 141.713 496.383C135.797 502.064 135.679 512.955 141.83 518.538C148.236 524.356 157.658 524.493 163.985 518.421C176.836 506.06 183.418 489.018 185.102 471.544C185.494 467.724 183.124 462.925 180.479 460.3Z" fill="#BEC5D2"/>
<path d="M237.226 372.72C236.912 364.277 230.448 356.931 221.672 356.931C213.484 356.931 205.57 363.983 205.883 372.485C206.197 380.928 212.661 388.273 221.437 388.273C229.645 388.273 237.559 381.221 237.226 372.72Z" fill="#9EA7B8"/>
<path d="M230.938 510.665C230.056 497.227 229.194 483.809 228.313 470.371C228.019 466.002 227.333 462.261 224.238 458.891C221.691 456.11 217.401 453.857 213.582 453.818C209.468 453.759 205.1 454.895 202.102 457.892C199.419 460.556 196.755 464.592 197.029 468.549C197.91 481.987 198.772 495.405 199.654 508.843C199.948 513.212 200.633 516.953 203.728 520.323C206.275 523.104 210.565 525.357 214.385 525.396C218.498 525.455 222.867 524.319 225.864 521.322C228.528 518.658 231.192 514.622 230.938 510.665Z" fill="#BEC5D2"/>
<path d="M218.323 424.807C218.264 424.16 218.225 423.494 218.166 422.828C216.893 406.53 215.6 390.232 214.327 373.914C213.817 367.509 212.054 361.691 207.353 357.048C203.337 353.072 196.736 350.035 190.996 350.251C184.826 350.486 178.381 352.523 174.13 357.224C170.212 361.534 166.863 367.548 167.333 373.581C168.665 390.545 169.997 407.49 171.329 424.454C171.838 430.86 173.601 436.678 178.303 441.32C182.318 445.297 188.92 448.333 194.659 448.118C200.83 447.882 207.275 445.845 211.526 441.144C215.443 436.834 218.793 430.82 218.323 424.807Z" fill="#BEC5D2"/>
<path d="M119.713 553.759C127.901 553.759 135.815 546.707 135.501 538.205C135.188 529.762 128.723 522.417 119.948 522.417C111.759 522.417 103.845 529.469 104.159 537.97C104.472 546.413 110.937 553.759 119.713 553.759Z" fill="#BEC5D2"/>
<path d="M218.401 564.397C226.589 564.397 234.503 557.345 234.19 548.844C233.876 540.401 227.412 533.055 218.636 533.055C210.448 533.055 202.534 540.107 202.847 548.609C203.161 557.051 209.625 564.397 218.401 564.397Z" fill="#BEC5D2"/>
<path d="M81.7879 538.971C90.7597 535.582 101.671 542.497 106.157 554.407C110.662 566.317 107.038 578.717 98.0664 582.106L81.7879 538.971Z" fill="#BEC5D2"/>
<path d="M204.179 588.179C204.179 578.6 214.483 570.823 227.216 570.823C239.948 570.823 250.272 578.58 250.272 588.159L204.179 588.179Z" fill="#BEC5D2"/>
<path d="M202.574 322.395C204.297 327.821 199.909 334.05 192.779 336.323C185.649 338.595 178.459 336.029 176.736 330.603C175.012 325.176 179.4 318.947 186.53 316.675C193.661 314.422 200.85 316.969 202.574 322.395Z" fill="#5D6A85"/>
<path d="M182.907 329.603C183.005 327.585 185.493 327.428 186.296 329.074C186.746 329.975 188.039 329.113 187.608 328.212C186.942 326.86 185.375 326.057 183.886 326.41C182.358 326.782 181.418 328.153 181.34 329.661C181.3 330.68 182.868 330.602 182.907 329.603Z" fill="#DCE1E8"/>
<path d="M195.499 326.723C195.401 325.724 196.792 324.882 197.595 325.607C198.339 326.273 199.397 325.117 198.653 324.451C196.909 322.884 193.697 324.412 193.952 326.802C194.049 327.781 195.617 327.722 195.499 326.723Z" fill="#DCE1E8"/>
<path d="M160.694 389.35C168.882 389.35 176.796 382.298 176.483 373.796C176.169 365.353 169.705 358.007 160.929 358.007C152.741 358.007 144.827 365.059 145.14 373.561C145.454 382.004 151.938 389.35 160.694 389.35Z" fill="#9EA7B8"/>
<path d="M205.335 366.92C205.178 366.92 205.041 366.92 204.884 366.92C204.002 366.92 203.082 367.292 202.475 367.919C201.906 368.487 201.475 369.447 201.495 370.25C201.534 371.132 201.828 372.052 202.494 372.66C203.141 373.247 203.944 373.639 204.825 373.639C204.982 373.639 205.119 373.639 205.276 373.639C206.157 373.639 207.078 373.267 207.685 372.64C208.253 372.072 208.684 371.112 208.665 370.309C208.625 369.428 208.332 368.507 207.666 367.9C207.039 367.312 206.236 366.92 205.335 366.92Z" fill="#5D6A85"/>
<path d="M198.164 381.222C201.729 381.222 205.314 381.222 208.879 381.222C209.741 381.222 209.741 379.87 208.879 379.87C205.314 379.87 201.729 379.87 198.164 379.87C197.302 379.87 197.302 381.222 198.164 381.222Z" fill="#818BA0"/>
<path d="M199.519 385.236C202.203 385.236 204.867 385.236 207.551 385.236C208.413 385.236 208.413 383.885 207.551 383.885C204.867 383.885 202.203 383.885 199.519 383.885C198.638 383.885 198.638 385.236 199.519 385.236Z" fill="#818BA0"/>
<path d="M80.1019 537.403C84.627 552.683 90.3274 567.59 97.164 581.988C97.6537 583.026 99.2012 582.125 98.7115 581.087C91.9337 566.826 86.292 552.076 81.8258 536.933C81.4927 535.836 79.7689 536.306 80.1019 537.403Z" fill="#5D6A85"/>
<path d="M203.533 590.353C219.753 590.353 235.973 590.353 252.193 590.353C253.348 590.353 253.348 588.57 252.193 588.57C235.973 588.57 219.753 588.57 203.533 588.57C202.378 588.551 202.378 590.353 203.533 590.353Z" fill="#5D6A85"/>
<path d="M185.688 303.413C185.003 299.261 184.317 295.108 183.631 290.955C183.435 289.819 181.712 290.308 181.908 291.425C182.593 295.578 183.279 299.731 183.964 303.884C184.141 305.039 185.865 304.55 185.688 303.413Z" fill="#5D6A85"/>
<path d="M182.515 293.578C187.138 293.578 187.138 286.408 182.515 286.408C177.892 286.408 177.892 293.578 182.515 293.578Z" fill="#BEC5D2"/>
<path d="M252.956 398.714C251.271 397.597 251.193 397.832 251.781 398.204C252.094 398.361 252.427 398.498 252.76 398.655C252.819 398.674 252.897 398.694 252.956 398.714Z" fill="#BEC5D2"/>
<path d="M250.37 397.342C250.488 397.322 250.174 397.028 248.999 396.46C249.019 396.48 249.038 396.499 249.058 396.499C249.489 396.754 249.92 397.048 250.37 397.342Z" fill="#BEC5D2"/>
<path d="M288.042 411.015C284.261 399.065 274.232 399.673 263.712 400.084C250.823 400.593 236.993 382.258 225.298 395.148C219.441 401.612 219.343 411.015 225.416 417.401C231.371 423.65 239.539 428.077 247.924 430.016C257.698 432.269 267.082 431.642 276.915 430.29C280.618 429.781 284.692 426.04 286.475 422.964C288.414 419.614 289.237 414.756 288.042 411.015Z" fill="#BEC5D2"/>
<path d="M258.209 400.143C258.463 400.162 258.659 400.162 258.678 400.143C258.639 400.182 258.463 400.182 258.209 400.143Z" fill="#BEC5D2"/>
<path d="M164.63 404.101C162.71 400.829 158.968 397.754 155.207 396.892C144.453 394.443 138.067 401.907 134.756 411.055C131.779 419.243 126.451 427.294 121.475 434.366C116.715 441.124 120.162 452.172 127.234 455.855C135.364 460.086 143.65 457.304 148.723 450.096C156.108 439.616 161.711 428.215 166.216 416.226C167.587 412.602 166.51 407.313 164.63 404.101Z" fill="#BEC5D2"/>
<path d="M94.5774 452.662C102.942 456.873 113.011 456.54 120.807 451.212C125.528 447.98 121.042 440.203 116.262 443.475C111.15 446.981 104.666 447.745 99.0437 444.905C93.9114 442.319 89.4059 450.056 94.5774 452.662Z" fill="#5D6A85"/>
<path d="M96.2453 462.28C105.452 464.415 115.247 462.711 122.945 457.148C127.568 453.798 123.102 446.021 118.401 449.41C112.602 453.602 105.628 455.267 98.596 453.622C92.9935 452.329 90.6233 460.968 96.2453 462.28Z" fill="#5D6A85"/>
<path d="M125.644 460.088C127.877 462.928 129.287 466.591 129.64 470.176C129.875 472.585 131.481 474.681 134.087 474.681C136.3 474.701 138.847 472.644 138.592 470.235C137.985 463.986 135.791 458.638 131.932 453.702C130.443 451.801 127.133 452.174 125.585 453.741C123.744 455.641 124.155 458.168 125.644 460.088Z" fill="#5D6A85"/>
<path d="M119.475 454.071C115.89 459.145 111.444 463.65 106.448 467.333C104.509 468.763 103.53 471.231 104.862 473.464C105.998 475.384 109.034 476.501 110.993 475.051C117.34 470.389 122.688 464.963 127.252 458.538C130.582 453.836 122.786 449.389 119.475 454.071Z" fill="#5D6A85"/>
<path d="M116.931 451.132C119.713 452.856 122.279 455.07 124.238 457.694C125.687 459.634 128.116 460.613 130.369 459.281C132.289 458.165 133.425 455.089 131.956 453.15C129.017 449.212 125.589 445.961 121.397 443.375C116.48 440.339 112.014 448.096 116.931 451.132Z" fill="#5D6A85"/>
<path d="M302.049 390.761C294.292 388.528 286.73 385.786 279.385 382.416C274.174 380.027 269.649 387.764 274.899 390.174C282.93 393.856 291.177 396.951 299.679 399.4C305.242 400.987 307.593 392.348 302.049 390.761Z" fill="#5D6A85"/>
<path d="M298.562 398.971C290.805 396.738 283.224 393.995 275.898 390.626C270.687 388.236 266.162 395.974 271.412 398.383C279.443 402.066 287.69 405.161 296.192 407.61C301.755 409.216 304.106 400.557 298.562 398.971Z" fill="#5D6A85"/>
<path d="M296.172 407.763C288.415 405.53 280.834 402.788 273.508 399.418C268.297 397.029 263.772 404.766 269.022 407.176C277.053 410.858 285.3 413.953 293.802 416.402C299.365 418.008 301.716 409.35 296.172 407.763Z" fill="#5D6A85"/>
<path d="M274.878 390.467C283.262 393.523 291.666 396.559 300.05 399.615C301.127 400.007 301.597 398.283 300.52 397.891C292.136 394.835 283.732 391.799 275.348 388.743C274.271 388.332 273.801 390.075 274.878 390.467Z" fill="#818BA0"/>
<path d="M272.783 400.145C280.755 403.044 288.728 405.943 296.701 408.842C297.778 409.234 298.248 407.51 297.171 407.118C289.198 404.219 281.226 401.32 273.253 398.421C272.175 398.029 271.705 399.753 272.783 400.145Z" fill="#818BA0"/>
<path d="M96.1875 452.954C103.161 454.129 110.076 453.522 116.697 451.054C117.775 450.662 117.304 448.919 116.227 449.33C109.919 451.681 103.298 452.347 96.6576 451.23C95.541 451.034 95.0513 452.778 96.1875 452.954Z" fill="#818BA0"/>
<path d="M112.914 463.044C114.97 461.81 117.027 460.576 119.084 459.342C120.064 458.754 119.163 457.207 118.183 457.794C116.126 459.028 114.069 460.262 112.013 461.497C111.033 462.104 111.934 463.651 112.914 463.044Z" fill="#818BA0"/>
<path d="M249.156 295.91C250.704 297.438 252.251 298.966 253.799 300.494C254.621 301.297 255.895 300.044 255.072 299.221C253.524 297.693 251.977 296.165 250.429 294.637C249.587 293.834 248.333 295.107 249.156 295.91Z" fill="#DCE1E8"/>
<path d="M241.75 318.124C243.826 317.85 245.863 317.948 247.901 318.437C249.017 318.712 249.507 316.988 248.371 316.713C246.177 316.165 243.983 316.028 241.75 316.322C240.614 316.478 240.614 318.281 241.75 318.124Z" fill="#DCE1E8"/>
<path d="M277.738 284.863C277.973 286.978 278.227 289.074 278.462 291.19C278.6 292.326 280.382 292.326 280.245 291.19C280.01 289.074 279.755 286.978 279.52 284.863C279.403 283.726 277.601 283.707 277.738 284.863Z" fill="#DCE1E8"/>
<path d="M315.777 293.932C317.109 292.189 318.441 290.445 319.773 288.702C320.478 287.781 318.911 286.9 318.226 287.801C316.894 289.544 315.562 291.288 314.229 293.031C313.524 293.932 315.072 294.833 315.777 293.932Z" fill="#DCE1E8"/>
<path d="M329.469 315.127C332.153 314.99 334.739 314.461 337.246 313.481C338.304 313.07 337.853 311.346 336.776 311.758C334.425 312.659 331.996 313.207 329.489 313.325C328.313 313.403 328.313 315.186 329.469 315.127Z" fill="#DCE1E8"/>
<path d="M45.0564 345.626C48.2886 354.285 52.5394 363.041 60.2574 368.565C67.1136 373.482 76.5163 375.284 83.921 370.504C87.0356 368.487 89.5822 365.509 90.7576 361.963C91.6195 359.358 92.3051 355.225 88.6224 354.794C85.6644 354.461 83.0395 356.851 82.0209 359.456C80.4929 363.354 82.3147 367.664 84.4303 370.955C89.6606 379.084 98.554 384.217 108.094 385.137C109.25 385.255 109.23 383.453 108.094 383.355C99.7881 382.552 91.9721 378.262 86.9769 371.523C84.2148 367.781 80.7084 360.769 85.8407 357.321C87.1532 356.439 89.2296 355.989 89.641 358.065C89.8173 358.927 89.3863 360.279 89.1513 361.102C88.544 363.217 87.2903 365.137 85.7624 366.684C79.2196 373.384 69.2684 372.444 61.9421 367.566C54.1653 362.394 49.9536 353.638 46.7802 345.156C46.3884 344.079 44.645 344.529 45.0564 345.626Z" fill="#BEC5D2"/>
<path d="M266.023 473.779C266.395 482.379 271.958 490.41 280.244 493.133C288.002 495.68 298.834 493.329 303.301 485.963C305.064 483.045 305.044 478.343 301.498 476.717C298.384 475.287 295.014 477.501 293.682 480.341C291.861 484.24 292.683 489.411 293.702 493.446C294.779 497.697 296.699 501.733 299.246 505.298C304.868 513.173 313.369 518.618 323.066 519.598C324.202 519.715 324.202 517.913 323.066 517.815C314.682 516.953 307.16 512.409 301.91 505.886C299.402 502.751 297.424 499.166 296.131 495.366C294.779 491.37 293.565 485.983 294.995 481.85C295.543 480.283 296.64 478.833 298.266 478.285C300.852 477.423 302.811 479.793 302.713 482.163C302.615 485.023 300.088 487.374 297.914 488.902C294.348 491.409 289.941 492.585 285.592 492.35C275.798 491.84 268.236 483.437 267.805 473.799C267.766 472.623 265.983 472.623 266.023 473.779Z" fill="#BEC5D2"/>
<path d="M63.6855 506.082C69.0529 505.808 73.9697 501.538 73.5779 495.896C73.2253 490.783 69.0529 486.356 63.8226 486.376C58.6119 486.395 53.7734 490.862 53.891 496.17C54.0281 501.616 58.3181 505.828 63.6855 506.082C64.8412 506.141 64.8412 504.339 63.6855 504.28C59.4934 504.084 56.2416 500.989 55.7519 496.817C55.223 492.213 59.2388 488.158 63.803 488.139C67.7208 488.119 70.9138 491.175 71.6582 494.936C72.6377 499.931 68.5044 504.045 63.6855 504.28C62.5297 504.339 62.5297 506.141 63.6855 506.082Z" fill="#BEC5D2"/>
<path d="M331.076 437.324C336.443 437.049 341.36 432.779 340.968 427.137C340.616 422.025 336.443 417.597 331.213 417.617C326.002 417.637 321.164 422.103 321.281 427.412C321.418 432.857 325.728 437.069 331.076 437.324C332.231 437.382 332.231 435.58 331.076 435.541C326.884 435.345 323.632 432.25 323.142 428.078C322.613 423.474 326.629 419.419 331.193 419.4C335.111 419.38 338.304 422.436 339.048 426.197C340.028 431.192 335.895 435.306 331.076 435.541C329.94 435.58 329.92 437.382 331.076 437.324Z" fill="#BEC5D2"/>
<path d="M120.143 306.292C114.991 306.292 110.055 309.72 109.644 315.205C109.213 321.004 113.659 325.783 119.419 326.018C124.59 326.234 129.507 322.434 129.918 317.105C130.388 311.229 125.863 306.645 120.143 306.292C118.988 306.214 118.988 308.016 120.143 308.075C124.904 308.369 129.115 312.737 128.018 317.713C127.137 321.748 123.454 324.334 119.399 324.216C114.717 324.079 111.054 320.005 111.465 315.342C111.857 310.837 115.873 308.094 120.143 308.094C121.299 308.094 121.299 306.292 120.143 306.292Z" fill="#BEC5D2"/>
</g>
</g>
<defs>
<clipPath id="clip0_48_5715">
<rect width="375" height="812" rx="32" fill="white"/>
</clipPath>
<clipPath id="clip1_48_5715">
<rect width="295.99" height="306.353" fill="white" transform="translate(45 284)"/>
</clipPath>
</defs>
</svg>
